<svg width="306" height="45" viewBox="0 0 306 45" fill="none" xmlns="http://www.w3.org/2000/svg">
<path d="M11.8999 24.4371H21.3208V34.3538H11.8999V24.4371Z" fill="#FF5811"/>
<path d="M1.98309 33.3634H11.8998V43.2801H1.98309V33.3634Z" fill="white"/>
<path d="M21.5686 44.2741C25.8345 44.2741 30.0047 42.9946 33.5516 40.5973C37.0986 38.2001 39.8631 34.7928 41.4956 30.8063C43.1281 26.8198 43.5552 22.4332 42.723 18.2011C41.8908 13.9691 39.8365 10.0818 36.8201 7.03063C33.8036 3.97951 29.9604 1.90167 25.7765 1.05987C21.5926 0.218064 17.2558 0.650107 13.3146 2.30136C9.37344 3.95262 6.00486 6.74892 3.63485 10.3367C1.26484 13.9244 -0.000149538 18.1424 -0.000149727 22.4574L10.1427 22.4574C10.1427 20.1716 10.8128 17.9371 12.0683 16.0365C13.3238 14.1359 15.1083 12.6546 17.1961 11.7798C19.2839 10.9051 21.5813 10.6762 23.7977 11.1222C26.0142 11.5681 28.0501 12.6688 29.648 14.2851C31.246 15.9015 32.3342 17.9608 32.7751 20.2027C33.2159 22.4446 32.9897 24.7683 32.1249 26.8802C31.2601 28.992 29.7956 30.797 27.9166 32.0669C26.0376 33.3369 23.8285 34.0147 21.5686 34.0147L21.5686 44.2741Z" fill="white"/>
<path d="M68.7812 8.50255C71.3164 8.50255 73.45 9.36414 75.182 11.0873C76.9139 12.8105 77.7799 14.9265 77.7799 17.4352C77.7799 19.944 76.9139 22.0599 75.182 23.7831C73.45 25.5063 71.3164 26.3679 68.7812 26.3679H64.1501V35.1105H58.9542V8.50255H68.7812ZM68.7812 21.4644C69.8857 21.4644 70.8018 21.0843 71.5298 20.3241C72.2577 19.5385 72.6217 18.5756 72.6217 17.4352C72.6217 16.2695 72.2577 15.3066 71.5298 14.5464C70.8018 13.7861 69.8857 13.406 68.7812 13.406H64.1501V21.4644H68.7812Z" fill="white"/>
<path d="M83.3465 13.8241C82.5432 13.8241 81.8404 13.5327 81.238 12.9499C80.6607 12.3417 80.372 11.6322 80.372 10.8212C80.372 10.0103 80.6607 9.30079 81.238 8.69261C81.8404 8.08442 82.5432 7.78033 83.3465 7.78033C84.1748 7.78033 84.8776 8.08442 85.455 8.69261C86.0574 9.30079 86.3586 10.0103 86.3586 10.8212C86.3586 11.6322 86.0574 12.3417 85.455 12.9499C84.8776 13.5327 84.1748 13.8241 83.3465 13.8241ZM80.9368 35.1105V16.1048H85.7938V35.1105H80.9368Z" fill="white"/>
<path d="M101.008 20.8182H96.7531V28.7246C96.7531 29.3835 96.9162 29.8649 97.2425 30.169C97.5689 30.4731 98.0458 30.6505 98.6733 30.7012C99.3008 30.7265 100.079 30.7139 101.008 30.6632V35.1105C97.6693 35.4906 95.3098 35.1738 93.9292 34.1602C92.5737 33.1466 91.896 31.3347 91.896 28.7246V20.8182H88.6203V16.1048H91.896V12.2657L96.7531 10.7832V16.1048H101.008V20.8182Z" fill="white"/>
<path d="M112.805 35.6427C109.969 35.6427 107.597 34.6797 105.689 32.7538C103.806 30.8279 102.865 28.4458 102.865 25.6077C102.865 22.7695 103.806 20.3874 105.689 18.4615C107.597 16.5356 109.969 15.5727 112.805 15.5727C114.637 15.5727 116.307 16.0161 117.813 16.9031C119.319 17.79 120.461 18.981 121.239 20.4761L117.06 22.9469C116.683 22.1613 116.106 21.5404 115.328 21.0843C114.575 20.6282 113.721 20.4001 112.767 20.4001C111.311 20.4001 110.107 20.8942 109.153 21.8825C108.199 22.8455 107.722 24.0872 107.722 25.6077C107.722 27.1028 108.199 28.3445 109.153 29.3328C110.107 30.2957 111.311 30.7772 112.767 30.7772C113.746 30.7772 114.612 30.5618 115.365 30.131C116.143 29.6749 116.721 29.054 117.097 28.2685L121.314 30.7012C120.486 32.1963 119.319 33.4 117.813 34.3123C116.307 35.1992 114.637 35.6427 112.805 35.6427Z" fill="white"/>
<path d="M134.35 15.5727C136.408 15.5727 138.103 16.2695 139.433 17.6633C140.789 19.057 141.466 20.9829 141.466 23.441V35.1105H136.609V24.0492C136.609 22.7821 136.27 21.8192 135.593 21.1603C134.915 20.4761 134.011 20.134 132.882 20.134C131.627 20.134 130.623 20.5268 129.87 21.3124C129.117 22.0979 128.74 23.2763 128.74 24.8474V35.1105H123.883V8.50255H128.74V18.2335C129.92 16.4596 131.79 15.5727 134.35 15.5727Z" fill="white"/>
<path d="M155.667 8.50255C158.202 8.50255 160.335 9.36414 162.067 11.0873C163.799 12.8105 164.665 14.9265 164.665 17.4352C164.665 19.944 163.799 22.0599 162.067 23.7831C160.335 25.5063 158.202 26.3679 155.667 26.3679H151.035V35.1105H145.839V8.50255H155.667ZM155.667 21.4644C156.771 21.4644 157.687 21.0843 158.415 20.3241C159.143 19.5385 159.507 18.5756 159.507 17.4352C159.507 16.2695 159.143 15.3066 158.415 14.5464C157.687 13.7861 156.771 13.406 155.667 13.406H151.035V21.4644H155.667Z" fill="white"/>
<path d="M170.676 27.6223C171.329 30.0043 173.098 31.1953 175.985 31.1953C177.842 31.1953 179.248 30.5618 180.202 29.2948L184.118 31.5754C182.26 34.2869 179.524 35.6427 175.91 35.6427C172.797 35.6427 170.299 34.6924 168.417 32.7918C166.534 30.8912 165.593 28.4965 165.593 25.6077C165.593 22.7441 166.522 20.3621 168.379 18.4615C170.237 16.5356 172.621 15.5727 175.533 15.5727C178.294 15.5727 180.566 16.5356 182.348 18.4615C184.155 20.3874 185.059 22.7695 185.059 25.6077C185.059 26.2412 184.996 26.9127 184.871 27.6223H170.676ZM170.601 23.8211H180.202C179.926 22.5287 179.348 21.5658 178.47 20.9323C177.616 20.2987 176.637 19.982 175.533 19.982C174.228 19.982 173.148 20.3241 172.295 21.0083C171.442 21.6671 170.877 22.6048 170.601 23.8211Z" fill="white"/>
<path d="M193.307 19.3738C193.758 18.1574 194.499 17.2452 195.528 16.637C196.582 16.0288 197.749 15.7247 199.03 15.7247V21.1983C197.549 21.021 196.218 21.325 195.039 22.1106C193.884 22.8962 193.307 24.2012 193.307 26.0258V35.1105H188.45V16.1048H193.307V19.3738Z" fill="white"/>
<path d="M211.999 12.6838C209.338 12.4811 208.007 13.5581 208.007 15.9148V16.1048H211.999V20.8182H208.007V35.1105H203.15V20.8182H200.44V16.1048H203.15V15.9148C203.15 13.2286 203.891 11.1887 205.372 9.79494C206.853 8.40119 209.062 7.793 211.999 7.97039V12.6838Z" fill="white"/>
<path d="M217.63 27.6223C218.283 30.0043 220.052 31.1953 222.939 31.1953C224.796 31.1953 226.202 30.5618 227.156 29.2948L231.072 31.5754C229.214 34.2869 226.478 35.6427 222.864 35.6427C219.751 35.6427 217.254 34.6924 215.371 32.7918C213.488 30.8912 212.547 28.4965 212.547 25.6077C212.547 22.7441 213.476 20.3621 215.333 18.4615C217.191 16.5356 219.575 15.5727 222.487 15.5727C225.248 15.5727 227.52 16.5356 229.302 18.4615C231.109 20.3874 232.013 22.7695 232.013 25.6077C232.013 26.2412 231.95 26.9127 231.825 27.6223H217.63ZM217.555 23.8211H227.156C226.88 22.5287 226.302 21.5658 225.424 20.9323C224.571 20.2987 223.592 19.982 222.487 19.982C221.182 19.982 220.103 20.3241 219.249 21.0083C218.396 21.6671 217.831 22.6048 217.555 23.8211Z" fill="white"/>
<path d="M244.218 35.6427C241.381 35.6427 239.009 34.6797 237.102 32.7538C235.219 30.8279 234.278 28.4458 234.278 25.6077C234.278 22.7695 235.219 20.3874 237.102 18.4615C239.009 16.5356 241.381 15.5727 244.218 15.5727C246.05 15.5727 247.719 16.0161 249.225 16.9031C250.731 17.79 251.873 18.981 252.652 20.4761L248.472 22.9469C248.096 22.1613 247.518 21.5404 246.74 21.0843C245.987 20.6282 245.134 20.4001 244.18 20.4001C242.724 20.4001 241.519 20.8942 240.565 21.8825C239.612 22.8455 239.135 24.0872 239.135 25.6077C239.135 27.1028 239.612 28.3445 240.565 29.3328C241.519 30.2957 242.724 30.7772 244.18 30.7772C245.159 30.7772 246.025 30.5618 246.778 30.131C247.556 29.6749 248.133 29.054 248.51 28.2685L252.727 30.7012C251.899 32.1963 250.731 33.4 249.225 34.3123C247.719 35.1992 246.05 35.6427 244.218 35.6427Z" fill="white"/>
<path d="M266.064 20.8182H261.809V28.7246C261.809 29.3835 261.973 29.8649 262.299 30.169C262.625 30.4731 263.102 30.6505 263.73 30.7012C264.357 30.7265 265.135 30.7139 266.064 30.6632V35.1105C262.726 35.4906 260.366 35.1738 258.986 34.1602C257.63 33.1466 256.952 31.3347 256.952 28.7246V20.8182H253.677V16.1048H256.952V12.2657L261.809 10.7832V16.1048H266.064V20.8182Z" fill="white"/>
<path d="M292.669 34.7118L291.096 30.031H280.647L279.074 34.7118H273.494L282.67 8.707H289.074L298.286 34.7118H292.669ZM282.295 25.2386H289.486L285.89 14.6138L282.295 25.2386Z" fill="#FF5811"/>
<path d="M300.832 8.707H306V34.7118H300.832V8.707Z" fill="#FF5811"/>
</svg>
